<?xml version="1.0" encoding="utf-8"?>
<!-- Generator: Adobe Illustrator 23.0.2, SVG Export Plug-In . SVG Version: 6.00 Build 0)  -->
<svg version="1.1" id="Layer_1" xmlns="http://www.w3.org/2000/svg" xmlns:xlink="http://www.w3.org/1999/xlink" x="0px" y="0px"
	 viewBox="0 0 70 70" style="enable-background:new 0 0 70 70;" xml:space="preserve">
<style type="text/css">
	.st0{opacity:9.000000e-02;}
	.st1{fill-rule:evenodd;clip-rule:evenodd;fill:url(#SVGID_1_);}
	.st2{fill-rule:evenodd;clip-rule:evenodd;fill:url(#SVGID_2_);}
	.st3{fill-rule:evenodd;clip-rule:evenodd;fill:#BCBEC0;}
	.st4{fill-rule:evenodd;clip-rule:evenodd;fill:url(#SVGID_3_);}
	.st5{fill-rule:evenodd;clip-rule:evenodd;fill:url(#SVGID_4_);}
	.st6{fill-rule:evenodd;clip-rule:evenodd;fill:#282828;}
	.st7{fill-rule:evenodd;clip-rule:evenodd;fill:#1F194F;}
	.st8{fill-rule:evenodd;clip-rule:evenodd;fill:url(#SVGID_5_);}
	.st9{fill-rule:evenodd;clip-rule:evenodd;fill:url(#SVGID_6_);}
	.st10{fill-rule:evenodd;clip-rule:evenodd;fill:url(#SVGID_7_);}
	.st11{fill-rule:evenodd;clip-rule:evenodd;fill:url(#SVGID_8_);}
	.st12{fill-rule:evenodd;clip-rule:evenodd;fill:url(#SVGID_9_);}
	.st13{fill-rule:evenodd;clip-rule:evenodd;fill:url(#SVGID_10_);}
	.st14{fill-rule:evenodd;clip-rule:evenodd;fill:url(#SVGID_11_);}
	.st15{fill-rule:evenodd;clip-rule:evenodd;fill:url(#SVGID_12_);}
	.st16{fill-rule:evenodd;clip-rule:evenodd;fill:url(#SVGID_13_);}
	.st17{fill-rule:evenodd;clip-rule:evenodd;fill:url(#SVGID_14_);}
	.st18{fill-rule:evenodd;clip-rule:evenodd;fill:url(#SVGID_15_);}
	.st19{fill-rule:evenodd;clip-rule:evenodd;fill:url(#SVGID_16_);}
	.st20{fill-rule:evenodd;clip-rule:evenodd;fill:url(#SVGID_17_);}
	.st21{fill-rule:evenodd;clip-rule:evenodd;fill:url(#SVGID_18_);}
	.st22{fill-rule:evenodd;clip-rule:evenodd;fill:url(#SVGID_19_);}
	.st23{fill-rule:evenodd;clip-rule:evenodd;fill:url(#SVGID_20_);}
	.st24{fill-rule:evenodd;clip-rule:evenodd;fill:url(#SVGID_21_);}
	.st25{fill-rule:evenodd;clip-rule:evenodd;fill:url(#SVGID_22_);}
	.st26{fill-rule:evenodd;clip-rule:evenodd;fill:url(#SVGID_23_);}
	.st27{fill-rule:evenodd;clip-rule:evenodd;fill:url(#SVGID_24_);}
	.st28{fill-rule:evenodd;clip-rule:evenodd;fill:url(#SVGID_25_);}
	.st29{fill-rule:evenodd;clip-rule:evenodd;fill:url(#SVGID_26_);}
	.st30{fill-rule:evenodd;clip-rule:evenodd;fill:url(#SVGID_27_);}
	.st31{fill-rule:evenodd;clip-rule:evenodd;fill:url(#SVGID_28_);}
	.st32{fill-rule:evenodd;clip-rule:evenodd;fill:url(#SVGID_29_);}
	.st33{fill-rule:evenodd;clip-rule:evenodd;fill:url(#SVGID_30_);}
	.st34{fill:url(#SVGID_31_);}
	.st35{opacity:0.3;}
	.st36{fill-rule:evenodd;clip-rule:evenodd;fill:url(#SVGID_32_);}
	.st37{fill-rule:evenodd;clip-rule:evenodd;fill:url(#SVGID_33_);}
	.st38{fill-rule:evenodd;clip-rule:evenodd;fill:url(#SVGID_34_);}
	.st39{fill-rule:evenodd;clip-rule:evenodd;fill:url(#SVGID_35_);}
	.st40{fill-rule:evenodd;clip-rule:evenodd;fill:url(#SVGID_36_);}
	.st41{fill-rule:evenodd;clip-rule:evenodd;fill:url(#SVGID_37_);}
	.st42{fill-rule:evenodd;clip-rule:evenodd;fill:url(#SVGID_38_);}
	.st43{fill-rule:evenodd;clip-rule:evenodd;fill:url(#SVGID_39_);}
	.st44{fill-rule:evenodd;clip-rule:evenodd;fill:url(#SVGID_40_);}
	.st45{fill-rule:evenodd;clip-rule:evenodd;fill:url(#SVGID_41_);}
	.st46{fill-rule:evenodd;clip-rule:evenodd;fill:url(#SVGID_42_);}
	.st47{fill-rule:evenodd;clip-rule:evenodd;fill:url(#SVGID_43_);}
	.st48{fill-rule:evenodd;clip-rule:evenodd;fill:url(#SVGID_44_);}
	.st49{fill-rule:evenodd;clip-rule:evenodd;fill:url(#SVGID_45_);}
	.st50{fill-rule:evenodd;clip-rule:evenodd;fill:url(#SVGID_46_);}
	.st51{fill-rule:evenodd;clip-rule:evenodd;fill:url(#SVGID_47_);}
	.st52{fill:#B02F3B;}
	.st53{fill:#474749;}
	.st54{fill:#48484A;}
	.st55{fill-rule:evenodd;clip-rule:evenodd;fill:url(#SVGID_48_);}
	.st56{fill-rule:evenodd;clip-rule:evenodd;fill:url(#SVGID_49_);}
	.st57{fill-rule:evenodd;clip-rule:evenodd;fill:url(#SVGID_50_);}
	.st58{fill-rule:evenodd;clip-rule:evenodd;fill:url(#SVGID_51_);}
	.st59{fill-rule:evenodd;clip-rule:evenodd;fill:url(#SVGID_52_);}
	.st60{fill-rule:evenodd;clip-rule:evenodd;fill:url(#SVGID_53_);}
	.st61{fill-rule:evenodd;clip-rule:evenodd;fill:url(#SVGID_54_);}
	.st62{fill-rule:evenodd;clip-rule:evenodd;fill:url(#SVGID_55_);}
	.st63{fill-rule:evenodd;clip-rule:evenodd;fill:url(#SVGID_56_);}
	.st64{fill-rule:evenodd;clip-rule:evenodd;fill:url(#SVGID_57_);}
	.st65{fill-rule:evenodd;clip-rule:evenodd;fill:url(#SVGID_58_);}
	.st66{fill-rule:evenodd;clip-rule:evenodd;fill:url(#SVGID_59_);}
	.st67{fill-rule:evenodd;clip-rule:evenodd;fill:#FFFFFF;}
	.st68{fill-rule:evenodd;clip-rule:evenodd;fill:url(#SVGID_60_);}
	.st69{fill-rule:evenodd;clip-rule:evenodd;fill:url(#SVGID_61_);}
	.st70{fill-rule:evenodd;clip-rule:evenodd;fill:url(#SVGID_62_);}
	.st71{fill-rule:evenodd;clip-rule:evenodd;fill:url(#SVGID_63_);}
	.st72{fill-rule:evenodd;clip-rule:evenodd;fill:url(#SVGID_64_);}
	.st73{fill-rule:evenodd;clip-rule:evenodd;fill:url(#SVGID_65_);}
	.st74{fill-rule:evenodd;clip-rule:evenodd;fill:url(#SVGID_66_);}
	.st75{fill-rule:evenodd;clip-rule:evenodd;fill:url(#SVGID_67_);}
	.st76{fill-rule:evenodd;clip-rule:evenodd;fill:url(#SVGID_68_);}
	.st77{fill-rule:evenodd;clip-rule:evenodd;fill:url(#SVGID_69_);}
	.st78{fill-rule:evenodd;clip-rule:evenodd;fill:url(#SVGID_70_);}
	.st79{fill-rule:evenodd;clip-rule:evenodd;fill:url(#SVGID_71_);}
	.st80{fill-rule:evenodd;clip-rule:evenodd;fill:url(#SVGID_72_);}
	.st81{fill-rule:evenodd;clip-rule:evenodd;fill:url(#SVGID_73_);}
	.st82{fill-rule:evenodd;clip-rule:evenodd;fill:url(#SVGID_74_);}
	.st83{fill-rule:evenodd;clip-rule:evenodd;fill:url(#SVGID_75_);}
	.st84{fill-rule:evenodd;clip-rule:evenodd;fill:url(#SVGID_76_);}
	.st85{fill-rule:evenodd;clip-rule:evenodd;fill:url(#SVGID_77_);}
	.st86{fill-rule:evenodd;clip-rule:evenodd;fill:url(#SVGID_78_);}
	.st87{fill-rule:evenodd;clip-rule:evenodd;fill:url(#SVGID_79_);}
	.st88{fill-rule:evenodd;clip-rule:evenodd;fill:url(#SVGID_80_);}
	.st89{fill-rule:evenodd;clip-rule:evenodd;fill:url(#SVGID_81_);}
	.st90{fill-rule:evenodd;clip-rule:evenodd;fill:url(#SVGID_82_);}
	.st91{fill-rule:evenodd;clip-rule:evenodd;fill:url(#SVGID_83_);}
	.st92{fill-rule:evenodd;clip-rule:evenodd;fill:url(#SVGID_84_);}
	.st93{fill-rule:evenodd;clip-rule:evenodd;fill:url(#SVGID_85_);}
	.st94{fill-rule:evenodd;clip-rule:evenodd;fill:url(#SVGID_86_);}
	.st95{fill:#414042;}
	.st96{fill:#FFFFFF;}
	.st97{fill:url(#SVGID_87_);}
	.st98{fill-rule:evenodd;clip-rule:evenodd;fill:url(#SVGID_88_);}
	.st99{fill-rule:evenodd;clip-rule:evenodd;fill:url(#SVGID_89_);}
	.st100{fill-rule:evenodd;clip-rule:evenodd;fill:url(#SVGID_90_);}
	.st101{fill-rule:evenodd;clip-rule:evenodd;fill:url(#SVGID_91_);}
	.st102{fill-rule:evenodd;clip-rule:evenodd;fill:url(#SVGID_92_);}
	.st103{fill-rule:evenodd;clip-rule:evenodd;fill:url(#SVGID_93_);}
	.st104{fill-rule:evenodd;clip-rule:evenodd;fill:url(#SVGID_94_);}
	.st105{fill-rule:evenodd;clip-rule:evenodd;fill:url(#SVGID_95_);}
	.st106{fill-rule:evenodd;clip-rule:evenodd;fill:url(#SVGID_96_);}
	.st107{fill-rule:evenodd;clip-rule:evenodd;fill:url(#SVGID_97_);}
	.st108{fill:none;stroke:#000000;stroke-width:0.5;stroke-miterlimit:10;}
	.st109{fill-rule:evenodd;clip-rule:evenodd;fill:#8D1B3D;}
	.st110{fill:url(#SVGID_98_);}
	.st111{fill-rule:evenodd;clip-rule:evenodd;fill:url(#SVGID_99_);}
	.st112{fill-rule:evenodd;clip-rule:evenodd;fill:url(#SVGID_100_);}
	.st113{fill-rule:evenodd;clip-rule:evenodd;fill:url(#SVGID_101_);}
	.st114{fill-rule:evenodd;clip-rule:evenodd;fill:url(#SVGID_102_);}
	.st115{fill-rule:evenodd;clip-rule:evenodd;fill:url(#SVGID_103_);}
	.st116{fill-rule:evenodd;clip-rule:evenodd;fill:url(#SVGID_104_);}
	.st117{fill-rule:evenodd;clip-rule:evenodd;fill:url(#SVGID_105_);}
	.st118{fill-rule:evenodd;clip-rule:evenodd;fill:url(#SVGID_106_);}
	.st119{fill-rule:evenodd;clip-rule:evenodd;fill:url(#SVGID_107_);}
	.st120{fill-rule:evenodd;clip-rule:evenodd;fill:url(#SVGID_108_);}
	.st121{fill:url(#SVGID_109_);}
	.st122{fill-rule:evenodd;clip-rule:evenodd;fill:url(#SVGID_110_);}
	.st123{fill-rule:evenodd;clip-rule:evenodd;fill:url(#SVGID_111_);}
	.st124{fill-rule:evenodd;clip-rule:evenodd;fill:url(#SVGID_112_);}
	.st125{fill-rule:evenodd;clip-rule:evenodd;fill:url(#SVGID_113_);}
	.st126{fill-rule:evenodd;clip-rule:evenodd;fill:url(#SVGID_114_);}
	.st127{fill-rule:evenodd;clip-rule:evenodd;fill:url(#SVGID_115_);}
	.st128{fill-rule:evenodd;clip-rule:evenodd;fill:url(#SVGID_116_);}
	.st129{fill-rule:evenodd;clip-rule:evenodd;fill:url(#SVGID_117_);}
	.st130{fill-rule:evenodd;clip-rule:evenodd;fill:url(#SVGID_118_);}
	.st131{fill-rule:evenodd;clip-rule:evenodd;fill:url(#SVGID_119_);}
	.st132{fill-rule:evenodd;clip-rule:evenodd;fill:url(#SVGID_120_);}
	.st133{fill-rule:evenodd;clip-rule:evenodd;fill:url(#SVGID_121_);}
	.st134{fill-rule:evenodd;clip-rule:evenodd;fill:url(#SVGID_122_);}
	.st135{fill-rule:evenodd;clip-rule:evenodd;fill:url(#SVGID_123_);}
	.st136{fill-rule:evenodd;clip-rule:evenodd;fill:url(#SVGID_124_);}
	.st137{fill-rule:evenodd;clip-rule:evenodd;fill:url(#SVGID_125_);}
	.st138{fill-rule:evenodd;clip-rule:evenodd;fill:url(#SVGID_126_);}
	.st139{fill-rule:evenodd;clip-rule:evenodd;fill:url(#SVGID_127_);}
	.st140{fill-rule:evenodd;clip-rule:evenodd;fill:url(#SVGID_128_);}
	.st141{fill-rule:evenodd;clip-rule:evenodd;fill:url(#SVGID_129_);}
</style>
<g>
	
		<linearGradient id="SVGID_1_" gradientUnits="userSpaceOnUse" x1="-4821.4019" y1="44.6141" x2="-4838.396" y2="68.0045" gradientTransform="matrix(-1 0 0 1 -4813.3247 0)">
		<stop  offset="0" style="stop-color:#1F194F"/>
		<stop  offset="1" style="stop-color:#939598"/>
	</linearGradient>
	<path class="st1" d="M5.3,54.5c2.6,5,16.9-1.5,22.1,10.3c1.7-7.3-2.8-13.7-11.2-15.5C11.8,49.5,7.9,51.3,5.3,54.5z"/>
	
		<radialGradient id="SVGID_2_" cx="-4875.7988" cy="57.6946" r="10.6229" gradientTransform="matrix(-0.9797 0 0 1 -4760.9663 0)" gradientUnits="userSpaceOnUse">
		<stop  offset="0" style="stop-color:#6D6E71"/>
		<stop  offset="1" style="stop-color:#1F194F"/>
	</radialGradient>
	<path class="st2" d="M5.3,54.5c2.6,5,16.9-1.5,22.1,10.3c-0.7-4.5-3.3-8.6-7.4-11c-4.1-2.4-8.7-2.6-12.8-1.1
		C6.5,53.2,5.8,53.8,5.3,54.5z"/>
	<path class="st3" d="M42.7,61.4c0.8,2.2,1.3,4.4,1.4,6.6c-0.6,0.1-1.1,0.2-1.7,0.2c-2.1,0.2-4-1.1-4.5-3.2
		c-1.2-4.9-4.7-9.7-9.9-12.8c-3.8-2.3-8-3.2-11.8-3c-1.1,0.1,7.8-1.7,17.2,3.9C37.2,55.4,40.4,58.3,42.7,61.4z"/>
	
		<linearGradient id="SVGID_3_" gradientUnits="userSpaceOnUse" x1="-4853.2568" y1="9.4902" x2="-4833.5596" y2="11.2135" gradientTransform="matrix(-1 0 0 1 -4813.3247 0)">
		<stop  offset="0" style="stop-color:#8D1B3D"/>
		<stop  offset="0.1342" style="stop-color:#8D1E3E"/>
		<stop  offset="0.2613" style="stop-color:#8C2740"/>
		<stop  offset="0.3857" style="stop-color:#8A3444"/>
		<stop  offset="0.5084" style="stop-color:#87414A"/>
		<stop  offset="0.6299" style="stop-color:#834D52"/>
		<stop  offset="0.7505" style="stop-color:#7E595C"/>
		<stop  offset="0.8704" style="stop-color:#776566"/>
		<stop  offset="0.9869" style="stop-color:#6E6D6E"/>
		<stop  offset="1" style="stop-color:#6D6E71"/>
	</linearGradient>
	<path class="st4" d="M36.5,1.4c-5.5-0.2-7.2,15.7-19.8,14.3c5.4,5.2,13.1,4.4,18.7-2.1C37.4,9.7,37.9,5.3,36.5,1.4z"/>
	
		<radialGradient id="SVGID_4_" cx="-4886.0386" cy="8.8448" r="10.2362" gradientTransform="matrix(-0.9797 0 0 1 -4760.9663 0)" gradientUnits="userSpaceOnUse">
		<stop  offset="0" style="stop-color:#808285"/>
		<stop  offset="1" style="stop-color:#8D1B3D"/>
	</radialGradient>
	<path class="st5" d="M36.5,1.4c-5.5-0.2-7.2,15.7-19.8,14.3c4.1,1.6,8.9,1.4,13.1-1c4-2.4,6.6-6.4,7.4-10.8
		C37,3.1,36.8,2.3,36.5,1.4z"/>
	<path class="st3" d="M11.8,31c-2.3-0.4-4.4-1.1-6.4-2c0.2-0.5,0.4-1.1,0.6-1.6c0.9-2,3-3,5-2.4c4.8,1.4,10.6,0.7,15.8-2.4
		c3.8-2.3,6.8-5.5,8.5-8.9c0.5-1-2.5,7.7-11.8,13.2C19.7,29.2,15.7,30.6,11.8,31z"/>
	<path class="st6" d="M36.5,1.4c-0.9,0-1.6,0.3-2.4,1c1.5,0.8,2.1,3.5,1.9,5.3c-0.4,3-1.6,6.1-3.6,8.8c1.1-0.8,2.1-1.7,3.1-2.9
		C37.4,9.7,37.9,5.3,36.5,1.4L36.5,1.4z M24.3,23.9c0.9-0.4,1.8-0.8,2.6-1.3c3.8-2.3,6.8-5.5,8.5-8.9c0.5-1-2.5,7.7-11.8,13.2
		c-3.9,2.3-7.9,3.6-11.8,4.1c2.4-0.7,4.9-1.8,7.2-3.2C21.1,26.7,22.8,25.3,24.3,23.9z"/>
	<path class="st7" d="M5.3,54.5c0.4,0.8,1.1,1.3,2,1.6c-0.1-1.7,2-3.6,3.6-4.3c2.7-1.2,6-1.6,9.3-1.2c-1.2-0.6-2.5-1-4-1.3
		C11.8,49.5,7.9,51.3,5.3,54.5L5.3,54.5z M30.5,54c-0.8-0.6-1.6-1.2-2.4-1.7c-3.8-2.3-8-3.2-11.8-3c-1.1,0.1,7.8-1.7,17.2,3.9
		c3.9,2.3,7.1,5.2,9.4,8.3c-1.8-1.8-3.9-3.4-6.3-4.8C34.4,55.4,32.4,54.6,30.5,54z"/>
	
		<linearGradient id="SVGID_5_" gradientUnits="userSpaceOnUse" x1="-4805.9497" y1="31.1948" x2="-4851.709" y2="65.677" gradientTransform="matrix(-1 0 0 1 -4813.3247 0)">
		<stop  offset="0" style="stop-color:#14113D"/>
		<stop  offset="6.670344e-02" style="stop-color:#1B1840"/>
		<stop  offset="0.1857" style="stop-color:#2C2748"/>
		<stop  offset="0.3433" style="stop-color:#453F59"/>
		<stop  offset="0.5335" style="stop-color:#696475"/>
		<stop  offset="0.7493" style="stop-color:#A0A1A5"/>
		<stop  offset="0.7668" style="stop-color:#A7A9AC"/>
	</linearGradient>
	<path class="st8" d="M2.8,38.3c7.2-1.4,16,0.1,24,4.9c7.9,4.6,13.4,11.4,16,18.3c-2.3-3.1-5.5-6-9.4-8.3
		c-9.2-5.4-17.9-3.8-17.2-3.8c-2,0.1-4,0.6-5.7,1.3c-2,0.9-4.7,3.5-3.1,5.5C2.1,54.3,1.7,42.6,2.8,38.3z"/>
	
		<linearGradient id="SVGID_6_" gradientUnits="userSpaceOnUse" x1="-4876.1919" y1="2.9457" x2="-4829.146" y2="21.9536" gradientTransform="matrix(-1 0 0 1 -4813.3247 0)">
		<stop  offset="0" style="stop-color:#8D1B3D"/>
		<stop  offset="0.1844" style="stop-color:#8E1E3E"/>
		<stop  offset="0.3177" style="stop-color:#8E2641"/>
		<stop  offset="0.435" style="stop-color:#903246"/>
		<stop  offset="0.543" style="stop-color:#92414D"/>
		<stop  offset="0.6448" style="stop-color:#955158"/>
		<stop  offset="0.7417" style="stop-color:#986366"/>
		<stop  offset="0.835" style="stop-color:#9C7879"/>
		<stop  offset="0.9229" style="stop-color:#A19090"/>
		<stop  offset="1" style="stop-color:#A7A9AC"/>
	</linearGradient>
	<path class="st9" d="M51.4,7.3c-2.4,7.1-8.1,14-16.1,18.8c-7.9,4.6-16.4,6.2-23.5,5c3.8-0.5,7.9-1.8,11.8-4.1
		c9.2-5.4,12.2-13.9,11.9-13.3c0.9-1.9,1.5-3.8,1.7-5.7c0.3-2.2-0.6-5.9-3.1-5.5C38.1-1.3,48.3,4.2,51.4,7.3z"/>
	
		<linearGradient id="SVGID_7_" gradientUnits="userSpaceOnUse" x1="-5046.377" y1="51.5692" x2="-5055.4863" y2="31.1092" gradientTransform="matrix(-1 0 0 1 -4987.4404 0)">
		<stop  offset="0" style="stop-color:#026A9F"/>
		<stop  offset="0.2077" style="stop-color:#0D6A9E"/>
		<stop  offset="0.3463" style="stop-color:#216B9D"/>
		<stop  offset="0.4648" style="stop-color:#346D9C"/>
		<stop  offset="0.572" style="stop-color:#467099"/>
		<stop  offset="0.6715" style="stop-color:#557396"/>
		<stop  offset="0.7654" style="stop-color:#617590"/>
		<stop  offset="0.8549" style="stop-color:#6A7588"/>
		<stop  offset="0.9387" style="stop-color:#6E737C"/>
		<stop  offset="1" style="stop-color:#6D6E71"/>
	</linearGradient>
	<path class="st10" d="M66,55.7c3-4.8-9.7-14.2-2.3-24.7c-7.1,2.2-10.2,9.3-7.6,17.6C58.5,52.4,62,55,66,55.7z"/>
	
		<radialGradient id="SVGID_8_" cx="-5099.2764" cy="43.7709" r="11.4851" gradientTransform="matrix(-0.9797 0 0 1 -4931.5469 0)" gradientUnits="userSpaceOnUse">
		<stop  offset="0" style="stop-color:#6D6E71"/>
		<stop  offset="4.676455e-02" style="stop-color:#6F747E"/>
		<stop  offset="0.1257" style="stop-color:#6E7A90"/>
		<stop  offset="0.2107" style="stop-color:#667C9E"/>
		<stop  offset="0.3007" style="stop-color:#5C7BA8"/>
		<stop  offset="0.3972" style="stop-color:#4E79AF"/>
		<stop  offset="0.5025" style="stop-color:#3E77B4"/>
		<stop  offset="0.6213" style="stop-color:#2E75B8"/>
		<stop  offset="0.7647" style="stop-color:#2175BA"/>
		<stop  offset="1" style="stop-color:#1B75BC"/>
	</radialGradient>
	<path class="st11" d="M66,55.7c3-4.8-9.7-14.2-2.3-24.7c-3.4,2.8-5.7,7.2-5.7,12.1c0,4.8,2.1,9,5.4,11.9
		C64.3,55.3,65.1,55.6,66,55.7z"/>
	
		<linearGradient id="SVGID_9_" gradientUnits="userSpaceOnUse" x1="-5022.1943" y1="39.7918" x2="-5052.8149" y2="28.6467" gradientTransform="matrix(-1 0 0 1 -4987.4404 0)">
		<stop  offset="0" style="stop-color:#58595B"/>
		<stop  offset="1" style="stop-color:#D1D3D4"/>
	</linearGradient>
	<path class="st12" d="M53.2,19.1c1.5-1.8,3.1-3.4,4.9-4.6c0.4,0.4,0.7,0.9,1.1,1.4c1.3,1.7,1.1,4.1-0.5,5.6
		c-3.6,3.5-5.9,9-5.9,15.1c0,4.5,1.3,8.7,3.3,12c0.6,0.9-5.3-6-5.3-17.1C50.8,27,51.7,22.8,53.2,19.1z"/>
	<path class="st6" d="M53,33.7c-0.1,1-0.2,2-0.2,3c0,4.5,1.3,8.7,3.3,12c0.6,0.9-5.3-6-5.3-17.1c0-4.6,0.9-8.8,2.4-12.4
		c-0.6,2.5-0.9,5.2-0.9,8C52.3,29.5,52.5,31.7,53,33.7L53,33.7z M66,55.7c0.5-0.8,0.5-1.6,0.4-2.6c-1.4,0.9-4,0.1-5.5-1
		c-2.4-1.8-4.4-4.5-5.7-7.6c0.1,1.3,0.4,2.7,0.9,4.2C58.5,52.4,62,55,66,55.7z"/>
	
		<linearGradient id="SVGID_10_" gradientUnits="userSpaceOnUse" x1="-5037.9683" y1="66.3648" x2="-5045.5933" y2="37.8457" gradientTransform="matrix(-1 0 0 1 -4987.4404 0)">
		<stop  offset="0" style="stop-color:#186BA0"/>
		<stop  offset="0.2866" style="stop-color:#1D6CA0"/>
		<stop  offset="0.4284" style="stop-color:#296DA0"/>
		<stop  offset="0.5385" style="stop-color:#3971A1"/>
		<stop  offset="0.6321" style="stop-color:#4A76A2"/>
		<stop  offset="0.7154" style="stop-color:#5C7CA4"/>
		<stop  offset="0.7913" style="stop-color:#6D85A6"/>
		<stop  offset="0.8616" style="stop-color:#7F8FA8"/>
		<stop  offset="0.9276" style="stop-color:#929AA9"/>
		<stop  offset="0.9877" style="stop-color:#A2A5AA"/>
		<stop  offset="1" style="stop-color:#A7A9AC"/>
	</linearGradient>
	<path class="st13" d="M53.5,66c-4.8-5.7-7.9-14.2-7.9-23.6c0-9.2,2.9-17.6,7.5-23.2c-1.5,3.6-2.4,7.9-2.4,12.4
		c0,10.9,5.7,17.8,5.3,17.1c1.1,1.7,2.5,3.2,4,4.4c1.7,1.3,5.3,2.4,6.2,0C67.5,58.6,57.7,64.8,53.5,66z"/>
</g>
</svg>
